<?xml version="1.0" standalone="no"?><!DOCTYPE svg PUBLIC "-//W3C//DTD SVG 1.1//EN" "http://www.w3.org/Graphics/SVG/1.1/DTD/svg11.dtd"><svg t="1676405245429" class="icon" viewBox="0 0 1024 1024" version="1.1" xmlns="http://www.w3.org/2000/svg" p-id="5118" xmlns:xlink="http://www.w3.org/1999/xlink" width="200" height="200"><path d="M243.14 817.3h51.08v24h-51.08zM127.9 673.88h41.54v24H127.9zM247.9 597.76h41.54v24h-41.54zM201.12 673.88h144.6v24h-144.6zM62.12 597.76h144.62v24H62.12z" fill="#DDD3D4" p-id="5119"></path><path d="M632.38 522.38l40.64-80.64 208.36-235.6-140.7-105.82A21.5 21.5 0 0 0 710 105.38l-151.7 222.14-45.8 21.08-3.7-8.76a20.2 20.2 0 0 0-26.52-10.7l-144 61.52a82.5 82.5 0 0 0-44.16 106.52L420 817.3h-102.68v24h124l72.94 69.14c12.8 12.34 38.74 16.82 56.5 16.82h81.44V869.8a67.58 67.58 0 0 0-46.72-64.3l-32.16-106.18 58.78-177.46c0.1 0.14 0.2 0.34 0.28 0.52z" fill="#DCD3D4" p-id="5120"></path><path d="M794.24 91.5l-179.18 262.34-34.22 15.5s6.6 18.64-21.58 36.88-5.44 95.58 38.12 91.5 85.34-14 106.52 29.36l40.64-80.64 208.36-235.6z" fill="#F3B5AF" p-id="5121"></path><path d="M655.84 829.76a67.6 67.6 0 0 1 67.6 67.6v14a13.14 13.14 0 0 1-13.14 13.14h-79.42a68.64 68.64 0 0 1-47.64-19.22l-106.48-102.6L348.28 482a35.46 35.46 0 0 1 18.98-45.8l186.26-79.56a20.18 20.18 0 0 1 26.48 10.78l3.86 9.16a4.84 4.84 0 0 1-2.48 6.3 59.44 59.44 0 0 0-30.84 76.28 59.42 59.42 0 0 0 69.62 35.6l11.66-2.92a58.18 58.18 0 0 1 69.48 38.44l4.14 12.72-60.92 183.9 33.16 109.52" fill="#F2463E" p-id="5122"></path><path d="M588.38 376.28a4.84 4.84 0 0 1-2.48 6.3 59.4 59.4 0 0 0-31.8 34.66c-19.32 22.32-57.18 73.18-40.58 179 21.06 134.2-14.32 151.52-44 178.98l-116.78-293.44a35.46 35.46 0 0 1 18.98-45.8L558 356.4a20.18 20.18 0 0 1 26.5 10.7z" fill="#DC4038" p-id="5123"></path><path d="M727.16 884.96h-82.3a44.2 44.2 0 0 1-33.08-14.96l-40.98-46.2a82.66 82.66 0 0 0-75.9-24l-13.3 2.64 111.14 109.66a65.6 65.6 0 0 0 46 18.9h88.34z" fill="#DCD3D4" p-id="5124"></path><path d="M412.4 421.76l62 155.34s14 42.68-42.36 97.84l-78.94-190.18c-7.42-18.82 5.9-40.94 24.76-48.26z" fill="#FFFFFF" p-id="5125"></path><path d="M457.1 643.84a183.2 183.2 0 0 1-25.88 31.1l-78.94-190.18c-6.26-15.86 5.72-36 19.82-45.8z" fill="#DCD3D4" p-id="5126"></path><path d="M558.86 696.996l5.76-31.74 23.614 4.28-5.758 31.744zM568.084 646.076l17.49-96.426 23.614 4.282-17.488 96.428z" fill="#FFFFFF" p-id="5127"></path><path d="M852 915.26h47.94v24H852zM85.1 915.26h70v24h-70zM740.28 914.12v-14a79.72 79.72 0 0 0-48.96-73.46L662 729.74l25.64-77.36c8.96 11.8 24 22.7 47.84 29.04l6.14-23.2c-33.28-8.82-40.38-26.4-41.6-36.5h1.04a49.5 49.5 0 0 0 16.98-96l36.54-72.52 207.3-234.42-18-16-209.36 236.88-32.12 63.74a70.42 70.42 0 0 0-68.62-20.52l-11.64 2.92a47.44 47.44 0 0 1-30.96-89.3 16.96 16.96 0 0 0 9.62-18.62l22.86-15.38 180.48-264.24-19.82-13.52-177.86 260.42-16.46 11.06a32.18 32.18 0 0 0-36.34-7.86L367.38 428A47.74 47.74 0 0 0 342 489.22l129.44 323.06 106.86 102.98H189.1v24h633.32v-24h-82.2c0.02-0.38 0.06-0.76 0.06-1.14z m-34.42-316.82l14-42.28a25.52 25.52 0 0 1-14 42.28z m-260.34 85.82l25.48-39.24a95.06 95.06 0 0 0 8.66-86.6c-7.36-18.62-17.24-43.38-29.36-73.58L428 492.66c12.1 30.14 22 54.86 29.32 73.44a71.08 71.08 0 0 1-6.46 64.7l-16.28 25.08-70.34-175.58a23.58 23.58 0 0 1 12.58-30.3l29.04-12.4 15.32 38 22.26-8.96c-6.38-15.84-11.9-29.56-15.52-38.5l135.16-57.74a8.18 8.18 0 0 1 10.74 4.34l1.28 3.04A71.44 71.44 0 0 0 628 509.08l11.66-2.92a46.32 46.32 0 0 1 55.14 30.5l2.92 8.98-10.54 31.86h-26.28v24h18.28l-4.94 14.94h-24.14v24h16.18l-4.94 14.94h-23.7v24h15.74l-4.94 14.92h-19.8v24h11.84l-3.68 11.12 27.6 91.12h-10.8l-44.38-80 43.86-201.32-23.46-5.22-45.78 210 42.32 76.38h-11.1v24h45.62a55.7 55.7 0 0 1 50 31.4h-65.82a32.2 32.2 0 0 1-24.1-10.84l-40.98-46.22-0.32-0.32a94.22 94.22 0 0 0-86.9-27.44l-3.54 0.7z m190.2 232.14a56.36 56.36 0 0 1-39.32-15.86l-89.32-86A70.34 70.34 0 0 1 562 834.88l40.82 46a56.2 56.2 0 0 0 42 18.92h71.42v14.28a1.14 1.14 0 0 1-1.14 1.14z" fill="#142546" p-id="5128"></path><path d="M255.02 796.9h51.08v24h-51.08zM329.2 796.9h114.74v24H329.2zM139.78 653.46h41.54v24H139.78zM259.78 577.34h41.54v24h-41.54zM212.98 653.46h157.26v24h-157.26zM73.98 577.34h144.62v24H73.98z" fill="#142546" p-id="5129"></path></svg>